<?xml version="1.0" standalone="no"?>
<!DOCTYPE svg PUBLIC "-//W3C//DTD SVG 20010904//EN"
 "http://www.w3.org/TR/2001/REC-SVG-20010904/DTD/svg10.dtd">
<svg version="1.0" xmlns="http://www.w3.org/2000/svg"
 width="225.000000pt" height="225.000000pt" viewBox="0 0 225.000000 225.000000"
 preserveAspectRatio="xMidYMid meet">
<metadata>
Created by potrace 1.14, written by Peter Selinger 2001-2017
</metadata>
<g transform="translate(0.000000,225.000000) scale(0.100000,-0.100000)"
fill="#000000" stroke="none">
<path d="M975 2240 c-94 -15 -116 -20 -190 -45 -300 -98 -550 -323 -678 -610
-20 -44 -52 -143 -72 -220 -40 -155 -41 -187 -11 -407 17 -123 110 -363 174
-447 166 -219 302 -329 518 -415 220 -89 465 -104 699 -42 387 101 692 409
794 801 32 122 43 293 27 415 -10 74 -46 223 -57 234 -5 6 -9 16 -9 23 0 26
-59 141 -118 228 -92 137 -234 271 -363 343 -20 11 -45 25 -55 31 -63 34 -184
77 -279 97 -82 18 -308 26 -380 14z"/>
</g>
</svg>
