<svg version="1.2" xmlns="http://www.w3.org/2000/svg" viewBox="0 0 42 76" width="42" height="76">
	<title>balloon-svg</title>
	<style>
		.s0 { } 
	</style>
	<g>
		<g>
			<path class="s0" d="m23 55.9c0 0 1.7 3.3 1.7 5.1-0.1 1.6-1.2 3-1.7 4.4-0.9 2.5-2.5 3.5-2.4 7.6 0.2 4.3 1.3 3.1 1.2-0.1-0.1-3.9 1-4.7 2.1-6.8 0.8-1.8 1.9-3.4 1.9-5.2 0-2-2.1-5.7-2.1-5.7z"/>
			<path fill-rule="evenodd" class="s0" d="m42 23.8c0 13.1-9.4 31-21 31-11.6 0-21-17.9-21-31 0-13.2 9.4-23.8 21-23.8 11.6 0 21 10.6 21 23.8zm-17.7-18.3c-0.8-1.6-4.8-1.2-6.9-0.5-4.7 1.6-10.3 6.4-11.4 13.8-0.4 2.3 0.4 1.6 0.5 2.7q0.1-0.2 0.4-0.4c1.2-1 2.2-4.7 3.6-6.7 1.4-2.1 3.6-4.8 5.7-5.9 3.8-2.2 8.8-1.6 8.1-3zm-17.8 16c-0.2 0.3-0.2 0.5-0.1 0.6q0.1-0.2 0.1-0.3 0-0.2 0-0.3zm-1.1 3.1c-0.2 3.8 1.3 11.6 2.8 11.2 1.8-0.4-0.2-7.3-0.4-12.3 0-0.6-1.3-1.2-1.3-1.2q0-0.1-0.1-0.2c-0.2 0.6-0.9 1.7-1 2.5z"/>
			<path class="s0" d="m20.5 58.9h1.6c1.4-0.1 1.8-0.8 1-1.5-0.6-0.6-0.6-1.6-0.6-2.3h-2.5c0.1 0.7 0.1 1.7-0.5 2.3-0.8 0.7-0.5 1.4 1 1.5z"/>
		</g>
	</g>
</svg>